<svg width="527" height="527" viewBox="0 0 527 527" fill="none" xmlns="http://www.w3.org/2000/svg">
<path d="M244.398 466.735C202.008 462.786 161.912 445.693 129.712 417.843C97.5127 389.993 74.8191 352.778 64.8033 311.4C54.7875 270.023 57.95 226.549 73.8488 187.057C89.7476 147.564 117.588 114.026 153.479 91.129L156.602 96.0234C121.731 118.269 94.6812 150.855 79.2342 189.225C63.7873 227.595 60.7146 269.833 70.4458 310.035C80.177 350.236 102.226 386.393 133.51 413.452C164.795 440.51 203.751 457.118 244.936 460.954L244.398 466.735Z" fill="#5A40FF"/>
<g filter="url(#filter0_d_2001_53)">
<rect x="209.364" y="207.46" width="110" height="110" rx="55" fill="#5A40FF"/>
<path fill-rule="evenodd" clip-rule="evenodd" d="M264.364 259.613C271.036 259.613 276.444 265.021 276.444 271.693C276.444 278.364 271.036 283.772 264.364 283.772C257.693 283.772 252.285 278.364 252.285 271.693C252.285 265.021 257.693 259.613 264.364 259.613ZM252.086 250.506C252.011 250.417 251.912 250.371 251.796 250.371C251.681 250.371 251.581 250.417 251.506 250.506L246.266 256.677C246.168 256.792 246.147 256.945 246.211 257.083C246.275 257.221 246.405 257.304 246.556 257.304H248.997V265.409C248.997 265.828 249.339 266.17 249.758 266.17H252.092C252.712 264.796 253.558 263.535 254.595 262.441V257.304H257.036C257.187 257.304 257.317 257.221 257.381 257.083C257.445 256.945 257.424 256.792 257.326 256.677L252.086 250.506ZM277.223 241.282C277.148 241.193 277.048 241.147 276.933 241.147C276.817 241.147 276.717 241.193 276.643 241.282L271.403 247.453C271.305 247.569 271.284 247.721 271.347 247.859C271.411 247.997 271.541 248.08 271.693 248.08H274.133V262.441C275.171 263.535 276.017 264.796 276.637 266.17H278.971C279.39 266.17 279.732 265.828 279.732 265.409V248.08H282.172C282.324 248.08 282.454 247.997 282.518 247.859C282.581 247.721 282.561 247.569 282.462 247.453L277.223 241.282ZM264.654 245.894L269.894 252.065C269.992 252.181 270.013 252.333 269.949 252.471C269.886 252.609 269.756 252.692 269.604 252.692H267.164V258.53C266.26 258.339 265.324 258.238 264.364 258.238C263.404 258.238 262.468 258.339 261.565 258.53V252.692H259.124C258.973 252.692 258.843 252.609 258.779 252.471C258.715 252.333 258.736 252.181 258.834 252.065L264.074 245.894C264.149 245.805 264.249 245.759 264.364 245.759C264.48 245.759 264.58 245.806 264.654 245.894ZM260.71 278.012L269.27 266.09C269.373 265.942 269.413 265.76 269.383 265.583C269.352 265.406 269.254 265.248 269.108 265.143C268.962 265.038 268.781 264.994 268.603 265.022C268.425 265.049 268.266 265.145 268.158 265.29L259.598 277.212C259.495 277.359 259.455 277.541 259.485 277.719C259.515 277.896 259.614 278.054 259.76 278.159C259.906 278.264 260.087 278.307 260.265 278.28C260.442 278.252 260.602 278.156 260.71 278.012ZM262.679 265.251C261.58 264.152 259.774 264.156 258.675 265.254C257.577 266.354 257.58 268.16 258.679 269.258C259.786 270.364 261.578 270.361 262.683 269.255C263.789 268.148 263.785 266.356 262.679 265.251ZM270.02 274.122C268.927 273.03 267.132 273.034 266.041 274.126C264.949 275.218 264.953 277.013 266.045 278.105C267.137 279.196 268.932 279.193 270.023 278.101C271.115 277.008 271.112 275.213 270.02 274.122ZM269.104 275.043C268.515 274.455 267.551 274.452 266.962 275.042C266.374 275.63 266.371 276.594 266.96 277.184C267.549 277.772 268.513 277.774 269.102 277.185C269.691 276.596 269.693 275.632 269.104 275.043ZM261.758 266.178C261.165 265.585 260.195 265.583 259.602 266.176C259.01 266.769 259.008 267.739 259.601 268.332C260.195 268.925 261.162 268.928 261.756 268.333C262.35 267.738 262.353 266.773 261.758 266.178Z" fill="white"/>
</g>
<rect x="54.3643" y="159.46" width="48" height="48" rx="24" fill="white"/>
<path d="M84.0913 192.46C85.221 192.46 86.1368 191.544 86.1368 190.414C86.1368 189.285 85.221 188.369 84.0913 188.369C82.9617 188.369 82.0459 189.285 82.0459 190.414C82.0459 191.544 82.9617 192.46 84.0913 192.46Z" fill="#455A64"/>
<path d="M75.9097 192.46C77.0394 192.46 77.9551 191.544 77.9551 190.414C77.9551 189.285 77.0394 188.369 75.9097 188.369C74.78 188.369 73.8643 189.285 73.8643 190.414C73.8643 191.544 74.78 192.46 75.9097 192.46Z" fill="#455A64"/>
<path d="M87.6711 177.053C87.6326 177.009 87.5854 176.974 87.5325 176.951C87.4796 176.927 87.4223 176.914 87.3642 176.915H72.637C72.411 176.914 72.2278 177.098 72.2278 177.324C72.2278 177.351 72.2305 177.378 72.2361 177.405L73.8724 185.587C73.8913 185.68 73.9415 185.763 74.0146 185.822C74.0876 185.882 74.179 185.915 74.2733 185.914C74.2913 185.916 74.3094 185.916 74.3273 185.914L86.6001 184.278C86.6897 184.266 86.7729 184.225 86.8365 184.161C86.9002 184.096 86.9407 184.013 86.9519 183.923L87.77 177.378C87.7778 177.319 87.7729 177.26 87.7559 177.204C87.7388 177.148 87.7099 177.097 87.6711 177.053Z" fill="#FFC107"/>
<path d="M75.9096 184.278C75.8128 184.278 75.7191 184.244 75.6452 184.181C75.5714 184.118 75.5221 184.032 75.5062 183.936L74.6881 179.027C74.6577 178.803 74.8146 178.597 75.0385 178.567C75.1418 178.553 75.2466 178.579 75.3314 178.639C75.4162 178.7 75.4746 178.791 75.4948 178.893L76.313 183.802C76.3499 184.025 76.1994 184.235 75.9767 184.272C75.9545 184.276 75.9321 184.278 75.9096 184.278ZM77.9551 183.869C77.8527 183.869 77.7538 183.831 77.6781 183.763C77.6023 183.694 77.5552 183.599 77.546 183.497L77.1369 178.997C77.1157 178.772 77.2809 178.572 77.5059 178.551L77.5092 178.551C77.7342 178.53 77.9331 178.696 77.9534 178.921L78.3625 183.421C78.3829 183.646 78.2169 183.845 77.9919 183.866H77.9919L77.9551 183.869ZM80.0005 183.46C79.7746 183.46 79.5914 183.277 79.5914 183.051V178.96C79.5914 178.734 79.7746 178.551 80.0005 178.551C80.2265 178.551 80.4096 178.734 80.4096 178.96V183.051C80.4096 183.277 80.2265 183.46 80.0005 183.46ZM82.046 183.051H82.0001C81.7755 183.027 81.6126 182.826 81.6364 182.601L81.6369 182.597L82.046 178.915C82.0725 178.69 82.2747 178.528 82.5001 178.551C82.7246 178.576 82.8865 178.778 82.8617 179.002L82.4526 182.684C82.4421 182.785 82.3947 182.878 82.3196 182.946C82.2445 183.013 82.1471 183.051 82.046 183.051ZM84.0914 182.642C84.0293 182.642 83.968 182.628 83.9121 182.6C83.8563 182.573 83.8074 182.533 83.7691 182.484C83.7309 182.436 83.7043 182.378 83.6914 182.318C83.6785 182.257 83.6796 182.194 83.6946 182.134L84.5128 178.861C84.5624 178.641 84.7813 178.502 85.0017 178.552C85.2221 178.601 85.3606 178.82 85.311 179.041C85.3096 179.047 85.3081 179.053 85.3064 179.059L84.4882 182.332C84.4662 182.42 84.4151 182.499 84.3432 182.555C84.2713 182.611 84.1827 182.642 84.0914 182.642Z" fill="#FAFAFA"/>
<path d="M85.7278 187.551H76.2852C74.9214 187.548 73.748 186.586 73.4772 185.249L71.4833 175.278H69.3642C69.1382 175.278 68.9551 175.095 68.9551 174.869C68.9551 174.643 69.1382 174.46 69.3642 174.46H71.8187C71.913 174.46 72.0044 174.492 72.0775 174.552C72.1506 174.612 72.2008 174.695 72.2196 174.787L74.2798 185.088C74.4729 186.043 75.311 186.73 76.2852 186.733H85.7278C85.9537 186.733 86.1369 186.916 86.1369 187.142C86.1369 187.368 85.9537 187.551 85.7278 187.551Z" fill="#455A64"/>
<rect x="44.3643" y="295.46" width="48" height="48" rx="24" fill="white"/>
<path d="M69.387 316.903C69.2966 316.903 69.2099 316.867 69.1459 316.803C69.082 316.739 69.0461 316.653 69.0461 316.562V313.153C69.0461 312.52 68.7947 311.913 68.3471 311.466C67.8996 311.018 67.2926 310.767 66.6597 310.767C66.0268 310.767 65.4198 311.018 64.9723 311.466C64.5248 311.913 64.2734 312.52 64.2734 313.153V316.562C64.2734 316.653 64.2375 316.739 64.1735 316.803C64.1096 316.867 64.0229 316.903 63.9325 316.903C63.842 316.903 63.7553 316.867 63.6914 316.803C63.6275 316.739 63.5916 316.653 63.5916 316.562V313.153C63.5916 312.339 63.9148 311.559 64.4902 310.984C65.0656 310.408 65.846 310.085 66.6597 310.085C67.4735 310.085 68.2539 310.408 68.8293 310.984C69.4046 311.559 69.7279 312.339 69.7279 313.153V316.562C69.7279 316.653 69.692 316.739 69.6281 316.803C69.5641 316.867 69.4774 316.903 69.387 316.903Z" fill="#DADCDE"/>
<path d="M70.0689 328.835H58.478L59.1598 315.199H69.3871L70.0689 328.835Z" fill="#EB423F"/>
<path d="M72.796 328.835H70.0688L69.387 315.199H72.1142L72.796 328.835Z" fill="#D13330"/>
<path d="M71.4527 327.13C71.4458 327.13 71.439 327.13 71.4322 327.13C71.3453 327.13 71.2617 327.097 71.1985 327.037C71.1353 326.978 71.0973 326.896 71.0922 326.809L70.4103 315.219C70.4099 315.212 70.4099 315.205 70.4099 315.199H71.0926L71.7731 326.769C71.7784 326.86 71.7476 326.948 71.6875 327.016C71.6274 327.084 71.543 327.125 71.4527 327.13Z" fill="#A82A27"/>
<path d="M78.2506 328.835H75.5234L75.4808 328.284V328.283L74.8416 319.971H77.5688L78.1974 328.14V328.14L78.2506 328.835Z" fill="#EBA72E"/>
<path d="M76.9213 327.129C76.9099 327.13 76.8983 327.13 76.8868 327.13C76.8024 327.13 76.721 327.099 76.6584 327.042C76.5958 326.985 76.5565 326.908 76.548 326.824L76.5357 326.702L75.8662 320.005C75.865 319.994 75.8644 319.983 75.8645 319.971H76.548L77.2179 326.671L77.2264 326.755C77.2309 326.8 77.2266 326.845 77.2137 326.888C77.2008 326.931 77.1795 326.971 77.1512 327.005C77.1229 327.04 77.088 327.069 77.0485 327.09C77.0091 327.111 76.9659 327.124 76.9213 327.129Z" fill="#E09F2C"/>
<path d="M78.2508 328.835H77.8409L76.8872 327.404L75.9335 328.835H75.5236L75.481 328.284V328.283L76.5356 326.702L76.6034 326.6C76.6346 326.554 76.6768 326.515 76.7263 326.489C76.7758 326.462 76.8311 326.449 76.8872 326.449C76.9433 326.449 76.9986 326.462 77.0481 326.489C77.0976 326.515 77.1398 326.554 77.171 326.6L77.2179 326.671L78.1976 328.14V328.14L78.2508 328.835Z" fill="#E09F2C"/>
<path d="M75.5235 328.835H66.6599L67.3417 319.971H74.8417L75.5235 328.835Z" fill="#F7B030"/>
<path d="M71.4325 326.449H70.7507C70.2988 326.448 69.8655 326.268 69.546 325.949C69.2264 325.629 69.0467 325.196 69.0461 324.744V322.017C69.0461 321.926 69.0821 321.84 69.146 321.776C69.2099 321.712 69.2966 321.676 69.3871 321.676C69.4775 321.676 69.5642 321.712 69.6281 321.776C69.692 321.84 69.728 321.926 69.728 322.017V324.744C69.7283 325.015 69.8361 325.275 70.0278 325.467C70.2196 325.659 70.4795 325.766 70.7507 325.767H71.4325C71.7036 325.766 71.9636 325.659 72.1553 325.467C72.3471 325.275 72.4549 325.015 72.4552 324.744V322.017C72.4552 321.926 72.4911 321.84 72.5551 321.776C72.619 321.712 72.7057 321.676 72.7961 321.676C72.8865 321.676 72.9733 321.712 73.0372 321.776C73.1011 321.84 73.137 321.926 73.137 322.017V324.744C73.1365 325.196 72.9568 325.629 72.6372 325.949C72.3177 326.268 71.8844 326.448 71.4325 326.449Z" fill="#E9EEF2"/>
<path d="M61.5461 316.562H62.228V318.608H61.5461V316.562Z" fill="#DADCDE"/>
<path d="M61.8871 316.903C61.7966 316.903 61.7099 316.867 61.646 316.803C61.5821 316.739 61.5461 316.653 61.5461 316.562V313.153C61.5461 312.339 61.8694 311.559 62.4448 310.984C63.0202 310.408 63.8006 310.085 64.6143 310.085C65.428 310.085 66.2084 310.408 66.7838 310.984C67.3592 311.559 67.6825 312.339 67.6825 313.153V316.562C67.6825 316.653 67.6466 316.739 67.5826 316.803C67.5187 316.867 67.432 316.903 67.3416 316.903C67.2512 316.903 67.1645 316.867 67.1005 316.803C67.0366 316.739 67.0007 316.653 67.0007 316.562V313.153C67.0007 312.52 66.7493 311.913 66.3017 311.466C65.8542 311.018 65.2472 310.767 64.6143 310.767C63.9814 310.767 63.3744 311.018 62.9269 311.466C62.4794 311.913 62.228 312.52 62.228 313.153V316.562C62.228 316.653 62.192 316.739 62.1281 316.803C62.0642 316.867 61.9775 316.903 61.8871 316.903Z" fill="#E9EEF2"/>
<path d="M62.9097 321.335H60.8643V318.608L61.887 317.926L62.9097 318.608V321.335Z" fill="#F7B030"/>
<rect x="111.364" y="396.46" width="48" height="48" rx="24" fill="white"/>
<path d="M137.369 421.414C138.633 420.997 139.719 420.174 140.444 419.084C141.168 417.994 141.485 416.706 141.34 415.438C141.196 414.171 140.599 413.002 139.651 412.132C138.703 411.262 137.463 410.744 136.143 410.666C134.822 410.588 133.503 410.956 132.409 411.706C131.315 412.456 130.514 413.542 130.143 414.779C129.773 416.017 129.855 417.329 130.376 418.491C130.897 419.654 131.824 420.596 133 421.157L133.721 419.801C132.866 419.393 132.191 418.708 131.813 417.863C131.434 417.017 131.374 416.063 131.644 415.163C131.913 414.263 132.496 413.473 133.291 412.928C134.087 412.382 135.047 412.115 136.007 412.171C136.967 412.228 137.869 412.605 138.558 413.238C139.248 413.871 139.682 414.72 139.787 415.642C139.892 416.564 139.662 417.501 139.135 418.294C138.608 419.086 137.818 419.685 136.898 419.988L137.369 421.414Z" fill="#626262"/>
<path d="M125.864 416.218H130.182V431.764V431.764C127.798 431.764 125.864 429.831 125.864 427.446V416.218Z" fill="#EA323C"/>
<path d="M144.864 416.218H140.546V431.764V431.764C142.931 431.764 144.864 429.831 144.864 427.446V416.218Z" fill="#88B621"/>
<path d="M140.546 416.218H135.364V431.764H140.546V416.218Z" fill="#F5AE03"/>
<path d="M135.364 416.218H130.182V431.764H135.364V416.218Z" fill="#0064D1"/>
<defs>
<filter id="filter0_d_2001_53" x="125.764" y="127.86" width="281.2" height="281.2" filterUnits="userSpaceOnUse" color-interpolation-filters="sRGB">
<feFlood flood-opacity="0" result="BackgroundImageFix"/>
<feColorMatrix in="SourceAlpha" type="matrix" values="0 0 0 0 0 0 0 0 0 0 0 0 0 0 0 0 0 0 127 0" result="hardAlpha"/>
<feMorphology radius="22" operator="erode" in="SourceAlpha" result="effect1_dropShadow_2001_53"/>
<feOffset dx="2" dy="6"/>
<feGaussianBlur stdDeviation="53.8"/>
<feComposite in2="hardAlpha" operator="out"/>
<feColorMatrix type="matrix" values="0 0 0 0 0.375 0 0 0 0 0.375 0 0 0 0 0.375 0 0 0 1 0"/>
<feBlend mode="normal" in2="BackgroundImageFix" result="effect1_dropShadow_2001_53"/>
<feBlend mode="normal" in="SourceGraphic" in2="effect1_dropShadow_2001_53" result="shape"/>
</filter>
</defs>
</svg>
