<svg width="546" height="606" viewBox="0 0 546 606" fill="none" xmlns="http://www.w3.org/2000/svg">
<path d="M138.934 151.511C163.269 134.208 191.435 123.062 221.02 119.026C250.605 114.99 280.728 118.185 308.808 128.337C336.889 138.488 362.09 155.294 382.255 177.316C402.42 199.337 416.947 225.918 424.592 254.782C432.238 283.646 432.774 313.932 426.154 343.048C419.535 372.164 405.957 399.242 386.584 421.964C367.211 444.685 342.619 462.372 314.916 473.51C287.212 484.649 257.221 488.907 227.512 485.921L236.566 395.863C251.721 397.386 267.019 395.214 281.151 389.532C295.283 383.85 307.827 374.828 317.709 363.238C327.592 351.648 334.518 337.835 337.894 322.983C341.271 308.13 340.998 292.681 337.098 277.957C333.198 263.234 325.787 249.675 315.501 238.442C305.215 227.208 292.359 218.635 278.035 213.457C263.711 208.278 248.346 206.649 233.254 208.708C218.163 210.766 203.795 216.452 191.382 225.278L138.934 151.511Z" fill="white"/>
<g filter="url(#filter0_d_2001_3)">
<rect x="191.364" y="247.46" width="110" height="110" rx="55" fill="#5A40FF"/>
<path fill-rule="evenodd" clip-rule="evenodd" d="M246.364 299.613C253.036 299.613 258.444 305.021 258.444 311.693C258.444 318.364 253.036 323.772 246.364 323.772C239.693 323.772 234.285 318.364 234.285 311.693C234.285 305.021 239.693 299.613 246.364 299.613ZM234.086 290.506C234.011 290.417 233.912 290.371 233.796 290.371C233.681 290.371 233.581 290.417 233.506 290.506L228.266 296.677C228.168 296.792 228.147 296.945 228.211 297.083C228.275 297.221 228.405 297.304 228.556 297.304H230.997V305.409C230.997 305.828 231.339 306.17 231.758 306.17H234.092C234.712 304.796 235.558 303.535 236.595 302.441V297.304H239.036C239.187 297.304 239.317 297.221 239.381 297.083C239.445 296.945 239.424 296.792 239.326 296.677L234.086 290.506ZM259.223 281.282C259.148 281.193 259.048 281.147 258.933 281.147C258.817 281.147 258.717 281.193 258.643 281.282L253.403 287.453C253.305 287.569 253.284 287.721 253.347 287.859C253.411 287.997 253.541 288.08 253.693 288.08H256.133V302.441C257.171 303.535 258.017 304.796 258.637 306.17H260.971C261.39 306.17 261.732 305.828 261.732 305.409V288.08H264.172C264.324 288.08 264.454 287.997 264.518 287.859C264.581 287.721 264.561 287.569 264.462 287.453L259.223 281.282ZM246.654 285.894L251.894 292.065C251.992 292.181 252.013 292.333 251.949 292.471C251.886 292.609 251.756 292.692 251.604 292.692H249.164V298.53C248.26 298.339 247.324 298.238 246.364 298.238C245.404 298.238 244.468 298.339 243.565 298.53V292.692H241.124C240.973 292.692 240.843 292.609 240.779 292.471C240.715 292.333 240.736 292.181 240.834 292.065L246.074 285.894C246.149 285.805 246.249 285.759 246.364 285.759C246.48 285.759 246.58 285.806 246.654 285.894ZM242.71 318.012L251.27 306.09C251.373 305.942 251.413 305.76 251.383 305.583C251.352 305.406 251.254 305.248 251.108 305.143C250.962 305.038 250.781 304.994 250.603 305.022C250.425 305.049 250.266 305.145 250.158 305.29L241.598 317.212C241.495 317.359 241.455 317.541 241.485 317.719C241.515 317.896 241.614 318.054 241.76 318.159C241.906 318.264 242.087 318.307 242.265 318.28C242.442 318.252 242.602 318.156 242.71 318.012ZM244.679 305.251C243.58 304.152 241.774 304.156 240.675 305.254C239.577 306.354 239.58 308.16 240.679 309.258C241.786 310.364 243.578 310.361 244.683 309.255C245.789 308.148 245.785 306.356 244.679 305.251ZM252.02 314.122C250.927 313.03 249.132 313.034 248.041 314.126C246.949 315.218 246.953 317.013 248.045 318.105C249.137 319.196 250.932 319.193 252.023 318.101C253.115 317.008 253.112 315.213 252.02 314.122ZM251.104 315.043C250.515 314.455 249.551 314.452 248.962 315.042C248.374 315.63 248.371 316.594 248.96 317.184C249.549 317.772 250.513 317.774 251.102 317.185C251.691 316.596 251.693 315.632 251.104 315.043ZM243.758 306.178C243.165 305.585 242.195 305.583 241.602 306.176C241.01 306.769 241.008 307.739 241.601 308.332C242.195 308.925 243.162 308.928 243.756 308.333C244.35 307.738 244.353 306.773 243.758 306.178Z" fill="white"/>
</g>
<g filter="url(#filter1_d_2001_3)">
<rect x="207.364" y="79.4599" width="100" height="100" rx="50" fill="white"/>
<path d="M270.603 112.878C268.902 111.22 267.768 109 267.344 106.561C267.288 106.237 267.245 105.906 267.214 105.582V104.478H258.616V138.633C258.604 142.612 255.371 145.836 251.39 145.836C250.219 145.836 249.116 145.555 248.138 145.062C246.942 144.46 245.937 143.537 245.235 142.397C244.533 141.256 244.162 139.942 244.163 138.602C244.163 134.611 247.397 131.368 251.39 131.368C252.156 131.368 252.891 131.487 253.583 131.705V122.962C252.866 122.862 252.138 122.812 251.415 122.812C242.681 122.831 235.61 129.909 235.61 138.633C235.61 144.108 238.388 148.929 242.612 151.766C245.212 153.516 248.276 154.448 251.409 154.441C260.137 154.441 267.207 147.364 267.207 138.633V121.178C270.681 123.666 274.847 125.001 279.119 124.995V116.445C277.804 116.445 276.502 116.233 275.269 115.815C274.403 115.522 272.764 114.999 270.596 112.878H270.603Z" fill="black"/>
</g>
<g filter="url(#filter2_d_2001_3)">
<rect x="343" y="154" width="100" height="100" rx="50" fill="white"/>
<path d="M392.996 196.148C394.124 196.148 395.052 195.564 395.177 194.807L396.293 182.231C396.293 180.989 394.834 179.967 393 179.967C391.167 179.967 389.711 180.989 389.711 182.231L390.824 194.807C390.946 195.564 391.876 196.148 393 196.148H392.996ZM386.187 200.077C386.754 199.103 386.71 198.008 386.113 197.522L375.76 190.272C374.685 189.65 373.07 190.398 372.153 191.985C371.234 193.569 371.398 195.338 372.472 195.958L383.936 201.289C384.653 201.554 385.629 201.044 386.191 200.07L386.187 200.077ZM399.809 200.07C400.373 201.044 401.346 201.554 402.063 201.288L413.528 195.958C414.607 195.338 414.762 193.568 413.85 191.985C412.93 190.398 411.312 189.649 410.238 190.272L399.885 197.522C399.293 198.008 399.249 199.103 399.813 200.077L399.809 200.07ZM392.996 211.856C394.124 211.856 395.052 212.438 395.177 213.194L396.293 225.769C396.293 227.014 394.834 228.033 393 228.033C391.167 228.033 389.711 227.014 389.711 225.769L390.824 213.194C390.946 212.438 391.876 211.856 393 211.856H392.996ZM399.809 207.928C400.373 206.953 401.346 206.446 402.063 206.716L413.528 212.039C414.607 212.662 414.762 214.433 413.85 216.018C412.93 217.599 411.312 218.351 410.238 217.731L399.885 210.487C399.293 209.994 399.249 208.899 399.813 207.926L399.809 207.928ZM386.187 207.926C386.754 208.9 386.71 209.995 386.113 210.486L375.76 217.73C374.685 218.35 373.07 217.599 372.153 216.018C371.234 214.433 371.398 212.663 372.472 212.038L383.936 206.715C384.653 206.445 385.629 206.953 386.193 207.929L386.187 207.926Z" fill="#FDBB30"/>
</g>
<g filter="url(#filter3_d_2001_3)">
<rect x="354" y="314" width="100" height="100" rx="50" fill="white"/>
<g clip-path="url(#clip0_2001_3)">
<path d="M417.712 357.71C417.712 359.679 417.783 361.636 417.689 363.605C417.594 365.845 418.277 367.767 419.689 369.465C419.854 369.665 420.007 369.866 420.149 370.078C420.655 370.845 420.56 371.375 419.866 371.965C418.383 373.214 416.912 374.476 415.429 375.726C414.546 376.469 413.993 376.457 413.098 375.726C411.898 374.747 410.956 373.545 410.12 372.259C409.92 371.953 409.814 371.965 409.567 372.2C408.084 373.651 406.519 374.995 404.53 375.667C401.458 376.716 398.339 376.881 395.255 375.785C392.289 374.724 390.511 372.531 389.852 369.477C389.123 366.069 389.499 362.827 391.594 359.938C393.183 357.757 395.384 356.472 397.915 355.682C400.528 354.88 403.223 354.573 405.93 354.302C406.695 354.22 407.449 354.149 408.214 354.078C408.402 354.066 408.567 354.043 408.555 353.795C408.531 352.545 408.661 351.272 408.367 350.046C407.99 348.478 406.966 347.558 405.401 347.216C404.282 346.968 403.176 347.039 402.093 347.405C400.445 347.971 399.421 349.114 399.009 350.812C398.786 351.744 398.35 352.074 397.444 351.979C395.514 351.779 393.583 351.578 391.665 351.378C390.876 351.296 390.464 350.694 390.629 349.928C391.63 345.035 394.831 342.287 399.445 341.026C402.988 340.059 406.578 340 410.132 341.002C412.992 341.804 415.393 343.219 416.735 346.025C417.5 347.617 417.677 349.338 417.7 351.06C417.724 353.265 417.7 355.493 417.712 357.71ZM408.555 361.388C408.555 360.799 408.531 360.209 408.567 359.62C408.59 359.254 408.461 359.125 408.096 359.16C407.201 359.242 406.295 359.254 405.401 359.372C403.835 359.573 402.305 359.962 401.034 360.952C399.186 362.402 398.798 364.383 399.104 366.612C399.468 369.229 401.799 370.679 404.294 369.807C405.989 369.217 407.025 367.968 407.743 366.399C408.496 364.808 408.555 363.098 408.555 361.388Z" fill="#050606"/>
<path d="M404.2 388C395.219 387.941 387.157 385.63 379.871 380.761C378.388 379.77 376.976 378.685 375.634 377.494C375.516 377.388 375.399 377.282 375.304 377.153C375.175 376.976 375.081 376.763 375.234 376.551C375.387 376.315 375.646 376.292 375.869 376.398C376.387 376.646 376.882 376.917 377.388 377.176C382.025 379.629 386.91 381.397 392.03 382.517C396.667 383.531 401.352 384.003 406.107 383.873C412.898 383.685 419.442 382.317 425.739 379.782C426.045 379.652 426.363 379.522 426.681 379.452C427.128 379.369 427.575 379.428 427.775 379.912C427.964 380.36 427.717 380.713 427.387 380.996C427.152 381.197 426.881 381.362 426.61 381.539C422.55 384.18 418.1 385.878 413.392 386.927C410.285 387.635 407.131 387.976 404.2 388Z" fill="#F6A61F"/>
<path d="M426.857 377.494C425.504 377.483 424.162 377.66 422.82 377.801C422.561 377.825 422.267 377.895 422.149 377.612C422.008 377.294 422.279 377.105 422.502 376.952C424.174 375.844 426.045 375.408 428.011 375.301C429.364 375.219 430.706 375.278 432.024 375.679C432.625 375.856 432.919 376.209 432.907 376.822C432.837 380.1 431.742 382.954 429.376 385.276C429.294 385.359 429.2 385.43 429.106 385.5C428.894 385.654 428.635 385.795 428.411 385.606C428.199 385.43 428.317 385.17 428.411 384.958C429.106 383.225 429.812 381.503 430.153 379.652C430.2 379.416 430.212 379.181 430.224 378.957C430.235 378.19 429.965 377.86 429.211 377.671C428.423 377.459 427.634 377.494 426.857 377.494Z" fill="#F6A61F"/>
</g>
</g>
<g filter="url(#filter4_d_2001_3)">
<rect x="245" y="414" width="100" height="100" rx="50" fill="white"/>
<g clip-path="url(#clip1_2001_3)">
<path d="M310.711 449.426C310.678 449.186 310.469 449.053 310.295 449.038C310.122 449.024 306.459 448.752 306.459 448.752C306.459 448.752 303.915 446.221 303.636 445.941C303.357 445.661 302.811 445.746 302.599 445.809C302.568 445.818 302.044 445.98 301.176 446.249C300.326 443.799 298.826 441.547 296.188 441.547C296.115 441.547 296.04 441.55 295.965 441.554C295.215 440.56 294.285 440.128 293.483 440.128C287.337 440.128 284.4 447.827 283.48 451.739C281.091 452.481 279.395 453.008 279.178 453.076C277.845 453.495 277.803 453.537 277.628 454.796C277.496 455.749 274.008 482.778 274.008 482.778L301.187 487.881L315.914 484.689C315.914 484.689 310.744 449.666 310.711 449.426ZM299.674 446.715L297.374 447.428C297.375 447.266 297.376 447.106 297.376 446.931C297.376 445.408 297.165 444.182 296.826 443.21C298.186 443.381 299.091 444.931 299.674 446.715ZM295.14 443.512C295.518 444.461 295.763 445.823 295.763 447.661C295.763 447.755 295.763 447.841 295.762 447.928C294.266 448.392 292.641 448.896 291.012 449.402C291.927 445.865 293.641 444.156 295.14 443.512ZM293.314 441.78C293.579 441.78 293.846 441.87 294.102 442.047C292.132 442.975 290.021 445.315 289.129 449.986L285.375 451.151C286.419 447.588 288.899 441.78 293.314 441.78Z" fill="#95BF46"/>
<path d="M310.295 449.038C310.122 449.024 306.459 448.752 306.459 448.752C306.459 448.752 303.915 446.221 303.636 445.941C303.532 445.837 303.391 445.783 303.243 445.76L301.188 487.881L315.914 484.689C315.914 484.689 310.744 449.666 310.711 449.426C310.678 449.186 310.469 449.053 310.295 449.038Z" fill="#5E8E3E"/>
<path d="M296.188 457.192L294.372 462.605C294.372 462.605 292.781 461.754 290.831 461.754C287.972 461.754 287.828 463.552 287.828 464.005C287.828 466.477 294.259 467.424 294.259 473.214C294.259 477.77 291.375 480.703 287.487 480.703C282.822 480.703 280.436 477.793 280.436 477.793L281.685 473.658C281.685 473.658 284.138 475.767 286.207 475.767C287.559 475.767 288.109 474.701 288.109 473.921C288.109 470.696 282.834 470.553 282.834 465.254C282.834 460.795 286.028 456.479 292.476 456.479C294.961 456.479 296.188 457.192 296.188 457.192Z" fill="white"/>
</g>
</g>
<defs>
<filter id="filter0_d_2001_3" x="107.764" y="167.86" width="281.2" height="281.2" filterUnits="userSpaceOnUse" color-interpolation-filters="sRGB">
<feFlood flood-opacity="0" result="BackgroundImageFix"/>
<feColorMatrix in="SourceAlpha" type="matrix" values="0 0 0 0 0 0 0 0 0 0 0 0 0 0 0 0 0 0 127 0" result="hardAlpha"/>
<feMorphology radius="22" operator="erode" in="SourceAlpha" result="effect1_dropShadow_2001_3"/>
<feOffset dx="2" dy="6"/>
<feGaussianBlur stdDeviation="53.8"/>
<feComposite in2="hardAlpha" operator="out"/>
<feColorMatrix type="matrix" values="0 0 0 0 0.375 0 0 0 0 0.375 0 0 0 0 0.375 0 0 0 1 0"/>
<feBlend mode="normal" in2="BackgroundImageFix" result="effect1_dropShadow_2001_3"/>
<feBlend mode="normal" in="SourceGraphic" in2="effect1_dropShadow_2001_3" result="shape"/>
</filter>
<filter id="filter1_d_2001_3" x="128.264" y="0.359932" width="270.2" height="270.2" filterUnits="userSpaceOnUse" color-interpolation-filters="sRGB">
<feFlood flood-opacity="0" result="BackgroundImageFix"/>
<feColorMatrix in="SourceAlpha" type="matrix" values="0 0 0 0 0 0 0 0 0 0 0 0 0 0 0 0 0 0 127 0" result="hardAlpha"/>
<feMorphology radius="6" operator="dilate" in="SourceAlpha" result="effect1_dropShadow_2001_3"/>
<feOffset dx="6" dy="6"/>
<feGaussianBlur stdDeviation="39.55"/>
<feComposite in2="hardAlpha" operator="out"/>
<feColorMatrix type="matrix" values="0 0 0 0 0 0 0 0 0 0 0 0 0 0 0 0 0 0 0.5 0"/>
<feBlend mode="normal" in2="BackgroundImageFix" result="effect1_dropShadow_2001_3"/>
<feBlend mode="normal" in="SourceGraphic" in2="effect1_dropShadow_2001_3" result="shape"/>
</filter>
<filter id="filter2_d_2001_3" x="263.9" y="74.9" width="270.2" height="270.2" filterUnits="userSpaceOnUse" color-interpolation-filters="sRGB">
<feFlood flood-opacity="0" result="BackgroundImageFix"/>
<feColorMatrix in="SourceAlpha" type="matrix" values="0 0 0 0 0 0 0 0 0 0 0 0 0 0 0 0 0 0 127 0" result="hardAlpha"/>
<feMorphology radius="6" operator="dilate" in="SourceAlpha" result="effect1_dropShadow_2001_3"/>
<feOffset dx="6" dy="6"/>
<feGaussianBlur stdDeviation="39.55"/>
<feComposite in2="hardAlpha" operator="out"/>
<feColorMatrix type="matrix" values="0 0 0 0 0 0 0 0 0 0 0 0 0 0 0 0 0 0 0.5 0"/>
<feBlend mode="normal" in2="BackgroundImageFix" result="effect1_dropShadow_2001_3"/>
<feBlend mode="normal" in="SourceGraphic" in2="effect1_dropShadow_2001_3" result="shape"/>
</filter>
<filter id="filter3_d_2001_3" x="274.9" y="234.9" width="270.2" height="270.2" filterUnits="userSpaceOnUse" color-interpolation-filters="sRGB">
<feFlood flood-opacity="0" result="BackgroundImageFix"/>
<feColorMatrix in="SourceAlpha" type="matrix" values="0 0 0 0 0 0 0 0 0 0 0 0 0 0 0 0 0 0 127 0" result="hardAlpha"/>
<feMorphology radius="6" operator="dilate" in="SourceAlpha" result="effect1_dropShadow_2001_3"/>
<feOffset dx="6" dy="6"/>
<feGaussianBlur stdDeviation="39.55"/>
<feComposite in2="hardAlpha" operator="out"/>
<feColorMatrix type="matrix" values="0 0 0 0 0 0 0 0 0 0 0 0 0 0 0 0 0 0 0.5 0"/>
<feBlend mode="normal" in2="BackgroundImageFix" result="effect1_dropShadow_2001_3"/>
<feBlend mode="normal" in="SourceGraphic" in2="effect1_dropShadow_2001_3" result="shape"/>
</filter>
<filter id="filter4_d_2001_3" x="165.9" y="334.9" width="270.2" height="270.2" filterUnits="userSpaceOnUse" color-interpolation-filters="sRGB">
<feFlood flood-opacity="0" result="BackgroundImageFix"/>
<feColorMatrix in="SourceAlpha" type="matrix" values="0 0 0 0 0 0 0 0 0 0 0 0 0 0 0 0 0 0 127 0" result="hardAlpha"/>
<feMorphology radius="6" operator="dilate" in="SourceAlpha" result="effect1_dropShadow_2001_3"/>
<feOffset dx="6" dy="6"/>
<feGaussianBlur stdDeviation="39.55"/>
<feComposite in2="hardAlpha" operator="out"/>
<feColorMatrix type="matrix" values="0 0 0 0 0 0 0 0 0 0 0 0 0 0 0 0 0 0 0.5 0"/>
<feBlend mode="normal" in2="BackgroundImageFix" result="effect1_dropShadow_2001_3"/>
<feBlend mode="normal" in="SourceGraphic" in2="effect1_dropShadow_2001_3" result="shape"/>
</filter>
<clipPath id="clip0_2001_3">
<rect width="66" height="48" fill="white" transform="translate(371 340)"/>
</clipPath>
<clipPath id="clip1_2001_3">
<rect width="42" height="48" fill="white" transform="translate(274 440)"/>
</clipPath>
</defs>
</svg>
